<?xml version="1.0" encoding="UTF-8" standalone="no"?>
<!DOCTYPE svg PUBLIC "-//W3C//DTD SVG 1.1//EN"
 "http://www.w3.org/Graphics/SVG/1.1/DTD/svg11.dtd">
<!-- Generated by graphviz version 2.43.0 (0)
 -->
<!-- Title: %3 Pages: 1 -->
<svg width="2126pt" height="476pt"
 viewBox="0.00 0.00 2126.01 476.00" xmlns="http://www.w3.org/2000/svg" xmlns:xlink="http://www.w3.org/1999/xlink">
<g id="graph0" class="graph" transform="scale(1 1) rotate(0) translate(4 472)">
<title>%3</title>
<polygon fill="white" stroke="transparent" points="-4,4 -4,-472 2122.01,-472 2122.01,4 -4,4"/>
<!-- [root] azurerm_kubernetes_cluster.jsa_k8s (expand) -->
<g id="node1" class="node">
<title>[root] azurerm_kubernetes_cluster.jsa_k8s (expand)</title>
<polygon fill="none" stroke="black" points="888.77,-108 613.77,-108 613.77,-72 888.77,-72 888.77,-108"/>
<text text-anchor="middle" x="751.27" y="-86.3" font-family="Times,serif" font-size="14.00">azurerm_kubernetes_cluster.jsa_k8s</text>
</g>
<!-- [root] provider[&quot;registry.terraform.io/hashicorp/azurerm&quot;] -->
<g id="node8" class="node">
<title>[root] provider[&quot;registry.terraform.io/hashicorp/azurerm&quot;]</title>
<polygon fill="none" stroke="black" points="746.27,-36 391.68,-18 746.27,0 1100.86,-18 746.27,-36"/>
<text text-anchor="middle" x="746.27" y="-14.3" font-family="Times,serif" font-size="14.00">provider[&quot;registry.terraform.io/hashicorp/azurerm&quot;]</text>
</g>
<!-- [root] azurerm_kubernetes_cluster.jsa_k8s (expand)&#45;&gt;[root] provider[&quot;registry.terraform.io/hashicorp/azurerm&quot;] -->
<g id="edge1" class="edge">
<title>[root] azurerm_kubernetes_cluster.jsa_k8s (expand)&#45;&gt;[root] provider[&quot;registry.terraform.io/hashicorp/azurerm&quot;]</title>
<path fill="none" stroke="black" d="M750.04,-71.7C749.49,-63.98 748.82,-54.71 748.21,-46.11"/>
<polygon fill="black" stroke="black" points="751.7,-45.83 747.49,-36.1 744.72,-46.33 751.7,-45.83"/>
</g>
<!-- [root] var.resource_group_name -->
<g id="node14" class="node">
<title>[root] var.resource_group_name</title>
<polygon fill="none" stroke="black" points="1313.27,-36 1119.27,-36 1119.27,0 1319.27,0 1319.27,-30 1313.27,-36"/>
<polyline fill="none" stroke="black" points="1313.27,-36 1313.27,-30 "/>
<polyline fill="none" stroke="black" points="1319.27,-30 1313.27,-30 "/>
<text text-anchor="middle" x="1219.27" y="-14.3" font-family="Times,serif" font-size="14.00">var.resource_group_name</text>
</g>
<!-- [root] azurerm_kubernetes_cluster.jsa_k8s (expand)&#45;&gt;[root] var.resource_group_name -->
<g id="edge2" class="edge">
<title>[root] azurerm_kubernetes_cluster.jsa_k8s (expand)&#45;&gt;[root] var.resource_group_name</title>
<path fill="none" stroke="black" d="M868.12,-71.99C935.73,-62.1 1022.72,-49.26 1109.2,-36.16"/>
<polygon fill="black" stroke="black" points="1109.83,-39.6 1119.19,-34.64 1108.78,-32.68 1109.83,-39.6"/>
</g>
<!-- [root] azurerm_public_ip.jsa_k8s_ingress_ip (expand) -->
<g id="node2" class="node">
<title>[root] azurerm_public_ip.jsa_k8s_ingress_ip (expand)</title>
<polygon fill="none" stroke="black" points="1434.77,-180 1151.77,-180 1151.77,-144 1434.77,-144 1434.77,-180"/>
<text text-anchor="middle" x="1293.27" y="-158.3" font-family="Times,serif" font-size="14.00">azurerm_public_ip.jsa_k8s_ingress_ip</text>
</g>
<!-- [root] azurerm_public_ip.jsa_k8s_ingress_ip (expand)&#45;&gt;[root] provider[&quot;registry.terraform.io/hashicorp/azurerm&quot;] -->
<g id="edge3" class="edge">
<title>[root] azurerm_public_ip.jsa_k8s_ingress_ip (expand)&#45;&gt;[root] provider[&quot;registry.terraform.io/hashicorp/azurerm&quot;]</title>
<path fill="none" stroke="black" d="M1227.56,-143.94C1122.1,-116.56 916.28,-63.13 811.27,-35.87"/>
<polygon fill="black" stroke="black" points="811.99,-32.44 801.43,-33.32 810.23,-39.22 811.99,-32.44"/>
</g>
<!-- [root] var.location -->
<g id="node11" class="node">
<title>[root] var.location</title>
<polygon fill="none" stroke="black" points="1340.77,-108 1247.77,-108 1247.77,-72 1346.77,-72 1346.77,-102 1340.77,-108"/>
<polyline fill="none" stroke="black" points="1340.77,-108 1340.77,-102 "/>
<polyline fill="none" stroke="black" points="1346.77,-102 1340.77,-102 "/>
<text text-anchor="middle" x="1297.27" y="-86.3" font-family="Times,serif" font-size="14.00">var.location</text>
</g>
<!-- [root] azurerm_public_ip.jsa_k8s_ingress_ip (expand)&#45;&gt;[root] var.location -->
<g id="edge4" class="edge">
<title>[root] azurerm_public_ip.jsa_k8s_ingress_ip (expand)&#45;&gt;[root] var.location</title>
<path fill="none" stroke="black" d="M1294.26,-143.7C1294.7,-135.98 1295.23,-126.71 1295.72,-118.11"/>
<polygon fill="black" stroke="black" points="1299.22,-118.29 1296.29,-108.1 1292.23,-117.89 1299.22,-118.29"/>
</g>
<!-- [root] azurerm_public_ip.jsa_k8s_ingress_ip (expand)&#45;&gt;[root] var.resource_group_name -->
<g id="edge5" class="edge">
<title>[root] azurerm_public_ip.jsa_k8s_ingress_ip (expand)&#45;&gt;[root] var.resource_group_name</title>
<path fill="none" stroke="black" d="M1270.51,-143.91C1259.49,-134.49 1247,-121.89 1239.27,-108 1228.65,-88.91 1223.67,-64.56 1221.33,-46.15"/>
<polygon fill="black" stroke="black" points="1224.8,-45.65 1220.24,-36.09 1217.84,-46.41 1224.8,-45.65"/>
</g>
<!-- [root] azurerm_role_assignment.jsa_acrpull_role (expand) -->
<g id="node3" class="node">
<title>[root] azurerm_role_assignment.jsa_acrpull_role (expand)</title>
<polygon fill="none" stroke="black" points="367.27,-180 51.27,-180 51.27,-144 367.27,-144 367.27,-180"/>
<text text-anchor="middle" x="209.27" y="-158.3" font-family="Times,serif" font-size="14.00">azurerm_role_assignment.jsa_acrpull_role</text>
</g>
<!-- [root] azurerm_role_assignment.jsa_acrpull_role (expand)&#45;&gt;[root] azurerm_kubernetes_cluster.jsa_k8s (expand) -->
<g id="edge6" class="edge">
<title>[root] azurerm_role_assignment.jsa_acrpull_role (expand)&#45;&gt;[root] azurerm_kubernetes_cluster.jsa_k8s (expand)</title>
<path fill="none" stroke="black" d="M341.17,-143.97C422.32,-133.49 526.29,-120.06 609.25,-109.34"/>
<polygon fill="black" stroke="black" points="609.79,-112.8 619.26,-108.05 608.89,-105.86 609.79,-112.8"/>
</g>
<!-- [root] data.azurerm_container_registry.containerregistry (expand) -->
<g id="node4" class="node">
<title>[root] data.azurerm_container_registry.containerregistry (expand)</title>
<polygon fill="none" stroke="black" points="496.77,-108 119.77,-108 119.77,-72 496.77,-72 496.77,-108"/>
<text text-anchor="middle" x="308.27" y="-86.3" font-family="Times,serif" font-size="14.00">data.azurerm_container_registry.containerregistry</text>
</g>
<!-- [root] azurerm_role_assignment.jsa_acrpull_role (expand)&#45;&gt;[root] data.azurerm_container_registry.containerregistry (expand) -->
<g id="edge7" class="edge">
<title>[root] azurerm_role_assignment.jsa_acrpull_role (expand)&#45;&gt;[root] data.azurerm_container_registry.containerregistry (expand)</title>
<path fill="none" stroke="black" d="M233.49,-143.88C246.19,-134.89 261.94,-123.76 275.7,-114.03"/>
<polygon fill="black" stroke="black" points="277.82,-116.82 283.96,-108.19 273.78,-111.11 277.82,-116.82"/>
</g>
<!-- [root] data.azurerm_container_registry.containerregistry (expand)&#45;&gt;[root] provider[&quot;registry.terraform.io/hashicorp/azurerm&quot;] -->
<g id="edge8" class="edge">
<title>[root] data.azurerm_container_registry.containerregistry (expand)&#45;&gt;[root] provider[&quot;registry.terraform.io/hashicorp/azurerm&quot;]</title>
<path fill="none" stroke="black" d="M414.86,-71.97C488.47,-60.2 585.33,-44.72 655.31,-33.54"/>
<polygon fill="black" stroke="black" points="656.11,-36.95 665.43,-31.92 655.01,-30.04 656.11,-36.95"/>
</g>
<!-- [root] helm_release.nginxIngressController (expand) -->
<g id="node5" class="node">
<title>[root] helm_release.nginxIngressController (expand)</title>
<polygon fill="none" stroke="black" points="1433.77,-252 1152.77,-252 1152.77,-216 1433.77,-216 1433.77,-252"/>
<text text-anchor="middle" x="1293.27" y="-230.3" font-family="Times,serif" font-size="14.00">helm_release.nginxIngressController</text>
</g>
<!-- [root] helm_release.nginxIngressController (expand)&#45;&gt;[root] azurerm_public_ip.jsa_k8s_ingress_ip (expand) -->
<g id="edge9" class="edge">
<title>[root] helm_release.nginxIngressController (expand)&#45;&gt;[root] azurerm_public_ip.jsa_k8s_ingress_ip (expand)</title>
<path fill="none" stroke="black" d="M1293.27,-215.7C1293.27,-207.98 1293.27,-198.71 1293.27,-190.11"/>
<polygon fill="black" stroke="black" points="1296.77,-190.1 1293.27,-180.1 1289.77,-190.1 1296.77,-190.1"/>
</g>
<!-- [root] provider[&quot;registry.terraform.io/hashicorp/helm&quot;] -->
<g id="node9" class="node">
<title>[root] provider[&quot;registry.terraform.io/hashicorp/helm&quot;]</title>
<polygon fill="none" stroke="black" points="1785.27,-180 1452.3,-162 1785.27,-144 2118.24,-162 1785.27,-180"/>
<text text-anchor="middle" x="1785.27" y="-158.3" font-family="Times,serif" font-size="14.00">provider[&quot;registry.terraform.io/hashicorp/helm&quot;]</text>
</g>
<!-- [root] helm_release.nginxIngressController (expand)&#45;&gt;[root] provider[&quot;registry.terraform.io/hashicorp/helm&quot;] -->
<g id="edge10" class="edge">
<title>[root] helm_release.nginxIngressController (expand)&#45;&gt;[root] provider[&quot;registry.terraform.io/hashicorp/helm&quot;]</title>
<path fill="none" stroke="black" d="M1413,-215.97C1497.56,-203.93 1609.43,-188.02 1688.39,-176.78"/>
<polygon fill="black" stroke="black" points="1688.93,-180.24 1698.33,-175.37 1687.94,-173.31 1688.93,-180.24"/>
</g>
<!-- [root] kubernetes_deployment.jsa_testapp (expand) -->
<g id="node6" class="node">
<title>[root] kubernetes_deployment.jsa_testapp (expand)</title>
<polygon fill="none" stroke="black" points="917.77,-252 644.77,-252 644.77,-216 917.77,-216 917.77,-252"/>
<text text-anchor="middle" x="781.27" y="-230.3" font-family="Times,serif" font-size="14.00">kubernetes_deployment.jsa_testapp</text>
</g>
<!-- [root] provider[&quot;registry.terraform.io/hashicorp/kubernetes&quot;] -->
<g id="node10" class="node">
<title>[root] provider[&quot;registry.terraform.io/hashicorp/kubernetes&quot;]</title>
<polygon fill="none" stroke="black" points="759.27,-180 385.08,-162 759.27,-144 1133.47,-162 759.27,-180"/>
<text text-anchor="middle" x="759.27" y="-158.3" font-family="Times,serif" font-size="14.00">provider[&quot;registry.terraform.io/hashicorp/kubernetes&quot;]</text>
</g>
<!-- [root] kubernetes_deployment.jsa_testapp (expand)&#45;&gt;[root] provider[&quot;registry.terraform.io/hashicorp/kubernetes&quot;] -->
<g id="edge11" class="edge">
<title>[root] kubernetes_deployment.jsa_testapp (expand)&#45;&gt;[root] provider[&quot;registry.terraform.io/hashicorp/kubernetes&quot;]</title>
<path fill="none" stroke="black" d="M775.83,-215.7C773.38,-207.9 770.43,-198.51 767.7,-189.83"/>
<polygon fill="black" stroke="black" points="770.99,-188.59 764.65,-180.1 764.31,-190.69 770.99,-188.59"/>
</g>
<!-- [root] kubernetes_service.jsa_testapp_lb (expand) -->
<g id="node7" class="node">
<title>[root] kubernetes_service.jsa_testapp_lb (expand)</title>
<polygon fill="none" stroke="black" points="911.27,-324 651.27,-324 651.27,-288 911.27,-288 911.27,-324"/>
<text text-anchor="middle" x="781.27" y="-302.3" font-family="Times,serif" font-size="14.00">kubernetes_service.jsa_testapp_lb</text>
</g>
<!-- [root] kubernetes_service.jsa_testapp_lb (expand)&#45;&gt;[root] kubernetes_deployment.jsa_testapp (expand) -->
<g id="edge12" class="edge">
<title>[root] kubernetes_service.jsa_testapp_lb (expand)&#45;&gt;[root] kubernetes_deployment.jsa_testapp (expand)</title>
<path fill="none" stroke="black" d="M781.27,-287.7C781.27,-279.98 781.27,-270.71 781.27,-262.11"/>
<polygon fill="black" stroke="black" points="784.77,-262.1 781.27,-252.1 777.77,-262.1 784.77,-262.1"/>
</g>
<!-- [root] provider[&quot;registry.terraform.io/hashicorp/kubernetes&quot;]&#45;&gt;[root] azurerm_kubernetes_cluster.jsa_k8s (expand) -->
<g id="edge17" class="edge">
<title>[root] provider[&quot;registry.terraform.io/hashicorp/kubernetes&quot;]&#45;&gt;[root] azurerm_kubernetes_cluster.jsa_k8s (expand)</title>
<path fill="none" stroke="black" d="M757.34,-144.05C756.45,-136.35 755.39,-127.03 754.4,-118.36"/>
<polygon fill="black" stroke="black" points="757.86,-117.81 753.25,-108.28 750.9,-118.61 757.86,-117.81"/>
</g>
<!-- [root] var.network -->
<g id="node12" class="node">
<title>[root] var.network</title>
<polygon fill="none" stroke="black" points="1258.77,-396 1163.77,-396 1163.77,-360 1264.77,-360 1264.77,-390 1258.77,-396"/>
<polyline fill="none" stroke="black" points="1258.77,-396 1258.77,-390 "/>
<polyline fill="none" stroke="black" points="1264.77,-390 1258.77,-390 "/>
<text text-anchor="middle" x="1214.27" y="-374.3" font-family="Times,serif" font-size="14.00">var.network</text>
</g>
<!-- [root] var.num_nodes -->
<g id="node13" class="node">
<title>[root] var.num_nodes</title>
<polygon fill="none" stroke="black" points="1399.77,-396 1282.77,-396 1282.77,-360 1405.77,-360 1405.77,-390 1399.77,-396"/>
<polyline fill="none" stroke="black" points="1399.77,-396 1399.77,-390 "/>
<polyline fill="none" stroke="black" points="1405.77,-390 1399.77,-390 "/>
<text text-anchor="middle" x="1344.27" y="-374.3" font-family="Times,serif" font-size="14.00">var.num_nodes</text>
</g>
<!-- [root] provider[&quot;registry.terraform.io/hashicorp/azurerm&quot;] (close) -->
<g id="node15" class="node">
<title>[root] provider[&quot;registry.terraform.io/hashicorp/azurerm&quot;] (close)</title>
<ellipse fill="none" stroke="black" cx="313.27" cy="-234" rx="313.04" ry="18"/>
<text text-anchor="middle" x="313.27" y="-230.3" font-family="Times,serif" font-size="14.00">[root] provider[&quot;registry.terraform.io/hashicorp/azurerm&quot;] (close)</text>
</g>
<!-- [root] provider[&quot;registry.terraform.io/hashicorp/azurerm&quot;] (close)&#45;&gt;[root] azurerm_public_ip.jsa_k8s_ingress_ip (expand) -->
<g id="edge13" class="edge">
<title>[root] provider[&quot;registry.terraform.io/hashicorp/azurerm&quot;] (close)&#45;&gt;[root] azurerm_public_ip.jsa_k8s_ingress_ip (expand)</title>
<path fill="none" stroke="black" d="M524.21,-220.68C724.07,-208.8 1011.19,-191.15 1141.22,-180.06"/>
<polygon fill="black" stroke="black" points="1141.77,-183.52 1151.43,-179.17 1141.16,-176.55 1141.77,-183.52"/>
</g>
<!-- [root] provider[&quot;registry.terraform.io/hashicorp/azurerm&quot;] (close)&#45;&gt;[root] azurerm_role_assignment.jsa_acrpull_role (expand) -->
<g id="edge14" class="edge">
<title>[root] provider[&quot;registry.terraform.io/hashicorp/azurerm&quot;] (close)&#45;&gt;[root] azurerm_role_assignment.jsa_acrpull_role (expand)</title>
<path fill="none" stroke="black" d="M288.1,-216.05C274.53,-206.92 257.6,-195.53 242.92,-185.65"/>
<polygon fill="black" stroke="black" points="244.83,-182.71 234.58,-180.03 240.92,-188.52 244.83,-182.71"/>
</g>
<!-- [root] provider[&quot;registry.terraform.io/hashicorp/helm&quot;] (close) -->
<g id="node16" class="node">
<title>[root] provider[&quot;registry.terraform.io/hashicorp/helm&quot;] (close)</title>
<ellipse fill="none" stroke="black" cx="1249.27" cy="-306" rx="297.05" ry="18"/>
<text text-anchor="middle" x="1249.27" y="-302.3" font-family="Times,serif" font-size="14.00">[root] provider[&quot;registry.terraform.io/hashicorp/helm&quot;] (close)</text>
</g>
<!-- [root] provider[&quot;registry.terraform.io/hashicorp/helm&quot;] (close)&#45;&gt;[root] helm_release.nginxIngressController (expand) -->
<g id="edge15" class="edge">
<title>[root] provider[&quot;registry.terraform.io/hashicorp/helm&quot;] (close)&#45;&gt;[root] helm_release.nginxIngressController (expand)</title>
<path fill="none" stroke="black" d="M1260.15,-287.7C1265.26,-279.56 1271.47,-269.69 1277.12,-260.7"/>
<polygon fill="black" stroke="black" points="1280.16,-262.43 1282.52,-252.1 1274.24,-258.71 1280.16,-262.43"/>
</g>
<!-- [root] provider[&quot;registry.terraform.io/hashicorp/kubernetes&quot;] (close) -->
<g id="node17" class="node">
<title>[root] provider[&quot;registry.terraform.io/hashicorp/kubernetes&quot;] (close)</title>
<ellipse fill="none" stroke="black" cx="781.27" cy="-378" rx="326.04" ry="18"/>
<text text-anchor="middle" x="781.27" y="-374.3" font-family="Times,serif" font-size="14.00">[root] provider[&quot;registry.terraform.io/hashicorp/kubernetes&quot;] (close)</text>
</g>
<!-- [root] provider[&quot;registry.terraform.io/hashicorp/kubernetes&quot;] (close)&#45;&gt;[root] kubernetes_service.jsa_testapp_lb (expand) -->
<g id="edge16" class="edge">
<title>[root] provider[&quot;registry.terraform.io/hashicorp/kubernetes&quot;] (close)&#45;&gt;[root] kubernetes_service.jsa_testapp_lb (expand)</title>
<path fill="none" stroke="black" d="M781.27,-359.7C781.27,-351.98 781.27,-342.71 781.27,-334.11"/>
<polygon fill="black" stroke="black" points="784.77,-334.1 781.27,-324.1 777.77,-334.1 784.77,-334.1"/>
</g>
<!-- [root] root -->
<g id="node18" class="node">
<title>[root] root</title>
<ellipse fill="none" stroke="black" cx="1135.27" cy="-450" rx="58.49" ry="18"/>
<text text-anchor="middle" x="1135.27" y="-446.3" font-family="Times,serif" font-size="14.00">[root] root</text>
</g>
<!-- [root] root&#45;&gt;[root] var.network -->
<g id="edge21" class="edge">
<title>[root] root&#45;&gt;[root] var.network</title>
<path fill="none" stroke="black" d="M1153.59,-432.76C1163.57,-423.92 1176.11,-412.82 1187.19,-403"/>
<polygon fill="black" stroke="black" points="1189.78,-405.38 1194.95,-396.12 1185.14,-400.14 1189.78,-405.38"/>
</g>
<!-- [root] root&#45;&gt;[root] var.num_nodes -->
<g id="edge22" class="edge">
<title>[root] root&#45;&gt;[root] var.num_nodes</title>
<path fill="none" stroke="black" d="M1173.61,-436.16C1204.31,-425.88 1247.95,-411.26 1283.41,-399.38"/>
<polygon fill="black" stroke="black" points="1284.81,-402.61 1293.18,-396.11 1282.59,-395.97 1284.81,-402.61"/>
</g>
<!-- [root] root&#45;&gt;[root] provider[&quot;registry.terraform.io/hashicorp/azurerm&quot;] (close) -->
<g id="edge18" class="edge">
<title>[root] root&#45;&gt;[root] provider[&quot;registry.terraform.io/hashicorp/azurerm&quot;] (close)</title>
<path fill="none" stroke="black" d="M1077.25,-447.13C921.38,-441.74 501.62,-424.71 446.27,-396 388.52,-366.04 346.38,-298.96 326.34,-261.53"/>
<polygon fill="black" stroke="black" points="329.23,-259.51 321.5,-252.26 323.02,-262.74 329.23,-259.51"/>
</g>
<!-- [root] root&#45;&gt;[root] provider[&quot;registry.terraform.io/hashicorp/helm&quot;] (close) -->
<g id="edge19" class="edge">
<title>[root] root&#45;&gt;[root] provider[&quot;registry.terraform.io/hashicorp/helm&quot;] (close)</title>
<path fill="none" stroke="black" d="M1135.12,-431.9C1135.79,-412.63 1139.49,-381.23 1155.27,-360 1165.08,-346.8 1179.22,-336.42 1193.56,-328.48"/>
<polygon fill="black" stroke="black" points="1195.22,-331.56 1202.48,-323.85 1191.99,-325.35 1195.22,-331.56"/>
</g>
<!-- [root] root&#45;&gt;[root] provider[&quot;registry.terraform.io/hashicorp/kubernetes&quot;] (close) -->
<g id="edge20" class="edge">
<title>[root] root&#45;&gt;[root] provider[&quot;registry.terraform.io/hashicorp/kubernetes&quot;] (close)</title>
<path fill="none" stroke="black" d="M1087.53,-439.56C1033.12,-428.8 942.87,-410.95 874.4,-397.42"/>
<polygon fill="black" stroke="black" points="874.95,-393.96 864.46,-395.45 873.59,-400.82 874.95,-393.96"/>
</g>
</g>
</svg>
