<?xml version="1.0" encoding="UTF-8" standalone="no"?>
<!DOCTYPE svg PUBLIC "-//W3C//DTD SVG 1.1//EN"
 "http://www.w3.org/Graphics/SVG/1.1/DTD/svg11.dtd">
<!-- Generated by graphviz version 2.43.0 (0)
 -->
<!-- Title: %3 Pages: 1 -->
<svg width="2840pt" height="476pt"
 viewBox="0.00 0.00 2840.09 476.00" xmlns="http://www.w3.org/2000/svg" xmlns:xlink="http://www.w3.org/1999/xlink">
<g id="graph0" class="graph" transform="scale(1 1) rotate(0) translate(4 472)">
<title>%3</title>
<polygon fill="white" stroke="transparent" points="-4,4 -4,-472 2836.09,-472 2836.09,4 -4,4"/>
<!-- [root] data.google_client_config.default (expand) -->
<g id="node1" class="node">
<title>[root] data.google_client_config.default (expand)</title>
<polygon fill="none" stroke="black" points="1427,-108 1176,-108 1176,-72 1427,-72 1427,-108"/>
<text text-anchor="middle" x="1301.5" y="-86.3" font-family="Times,serif" font-size="14.00">data.google_client_config.default</text>
</g>
<!-- [root] provider[&quot;registry.terraform.io/hashicorp/google&quot;] -->
<g id="node17" class="node">
<title>[root] provider[&quot;registry.terraform.io/hashicorp/google&quot;]</title>
<polygon fill="none" stroke="black" points="1082.5,-36 738.97,-18 1082.5,0 1426.03,-18 1082.5,-36"/>
<text text-anchor="middle" x="1082.5" y="-14.3" font-family="Times,serif" font-size="14.00">provider[&quot;registry.terraform.io/hashicorp/google&quot;]</text>
</g>
<!-- [root] data.google_client_config.default (expand)&#45;&gt;[root] provider[&quot;registry.terraform.io/hashicorp/google&quot;] -->
<g id="edge1" class="edge">
<title>[root] data.google_client_config.default (expand)&#45;&gt;[root] provider[&quot;registry.terraform.io/hashicorp/google&quot;]</title>
<path fill="none" stroke="black" d="M1248.21,-71.97C1214.79,-61.28 1171.79,-47.54 1137.97,-36.73"/>
<polygon fill="black" stroke="black" points="1138.83,-33.33 1128.24,-33.62 1136.7,-40 1138.83,-33.33"/>
</g>
<!-- [root] data.google_storage_bucket.container_registry_storage_bucket (expand) -->
<g id="node2" class="node">
<title>[root] data.google_storage_bucket.container_registry_storage_bucket (expand)</title>
<polygon fill="none" stroke="black" points="467,-108 0,-108 0,-72 467,-72 467,-108"/>
<text text-anchor="middle" x="233.5" y="-86.3" font-family="Times,serif" font-size="14.00">data.google_storage_bucket.container_registry_storage_bucket</text>
</g>
<!-- [root] data.google_storage_bucket.container_registry_storage_bucket (expand)&#45;&gt;[root] provider[&quot;registry.terraform.io/hashicorp/google&quot;] -->
<g id="edge2" class="edge">
<title>[root] data.google_storage_bucket.container_registry_storage_bucket (expand)&#45;&gt;[root] provider[&quot;registry.terraform.io/hashicorp/google&quot;]</title>
<path fill="none" stroke="black" d="M439.83,-71.99C597.13,-59.02 809.3,-41.52 946.03,-30.25"/>
<polygon fill="black" stroke="black" points="946.47,-33.73 956.15,-29.42 945.9,-26.75 946.47,-33.73"/>
</g>
<!-- [root] var.project -->
<g id="node22" class="node">
<title>[root] var.project</title>
<polygon fill="none" stroke="black" points="274,-36 187,-36 187,0 280,0 280,-30 274,-36"/>
<polyline fill="none" stroke="black" points="274,-36 274,-30 "/>
<polyline fill="none" stroke="black" points="280,-30 274,-30 "/>
<text text-anchor="middle" x="233.5" y="-14.3" font-family="Times,serif" font-size="14.00">var.project</text>
</g>
<!-- [root] data.google_storage_bucket.container_registry_storage_bucket (expand)&#45;&gt;[root] var.project -->
<g id="edge3" class="edge">
<title>[root] data.google_storage_bucket.container_registry_storage_bucket (expand)&#45;&gt;[root] var.project</title>
<path fill="none" stroke="black" d="M233.5,-71.7C233.5,-63.98 233.5,-54.71 233.5,-46.11"/>
<polygon fill="black" stroke="black" points="237,-46.1 233.5,-36.1 230,-46.1 237,-46.1"/>
</g>
<!-- [root] google_compute_address.kubernetes_cluster_primary_ingress_ip (expand) -->
<g id="node3" class="node">
<title>[root] google_compute_address.kubernetes_cluster_primary_ingress_ip (expand)</title>
<polygon fill="none" stroke="black" points="1322,-180 843,-180 843,-144 1322,-144 1322,-180"/>
<text text-anchor="middle" x="1082.5" y="-158.3" font-family="Times,serif" font-size="14.00">google_compute_address.kubernetes_cluster_primary_ingress_ip</text>
</g>
<!-- [root] google_compute_address.kubernetes_cluster_primary_ingress_ip (expand)&#45;&gt;[root] provider[&quot;registry.terraform.io/hashicorp/google&quot;] -->
<g id="edge4" class="edge">
<title>[root] google_compute_address.kubernetes_cluster_primary_ingress_ip (expand)&#45;&gt;[root] provider[&quot;registry.terraform.io/hashicorp/google&quot;]</title>
<path fill="none" stroke="black" d="M1082.5,-143.87C1082.5,-119.67 1082.5,-75.21 1082.5,-46.39"/>
<polygon fill="black" stroke="black" points="1086,-46.19 1082.5,-36.19 1079,-46.19 1086,-46.19"/>
</g>
<!-- [root] google_container_cluster.jsa_showcase_gke (expand) -->
<g id="node4" class="node">
<title>[root] google_container_cluster.jsa_showcase_gke (expand)</title>
<polygon fill="none" stroke="black" points="1835,-108 1510,-108 1510,-72 1835,-72 1835,-108"/>
<text text-anchor="middle" x="1672.5" y="-86.3" font-family="Times,serif" font-size="14.00">google_container_cluster.jsa_showcase_gke</text>
</g>
<!-- [root] google_container_cluster.jsa_showcase_gke (expand)&#45;&gt;[root] provider[&quot;registry.terraform.io/hashicorp/google&quot;] -->
<g id="edge5" class="edge">
<title>[root] google_container_cluster.jsa_showcase_gke (expand)&#45;&gt;[root] provider[&quot;registry.terraform.io/hashicorp/google&quot;]</title>
<path fill="none" stroke="black" d="M1528.92,-71.97C1425.26,-59.67 1287.36,-43.31 1192.4,-32.04"/>
<polygon fill="black" stroke="black" points="1192.54,-28.53 1182.19,-30.83 1191.71,-35.48 1192.54,-28.53"/>
</g>
<!-- [root] var.network -->
<g id="node20" class="node">
<title>[root] var.network</title>
<polygon fill="none" stroke="black" points="1770,-36 1675,-36 1675,0 1776,0 1776,-30 1770,-36"/>
<polyline fill="none" stroke="black" points="1770,-36 1770,-30 "/>
<polyline fill="none" stroke="black" points="1776,-30 1770,-30 "/>
<text text-anchor="middle" x="1725.5" y="-14.3" font-family="Times,serif" font-size="14.00">var.network</text>
</g>
<!-- [root] google_container_cluster.jsa_showcase_gke (expand)&#45;&gt;[root] var.network -->
<g id="edge6" class="edge">
<title>[root] google_container_cluster.jsa_showcase_gke (expand)&#45;&gt;[root] var.network</title>
<path fill="none" stroke="black" d="M1685.6,-71.7C1691.89,-63.39 1699.55,-53.28 1706.46,-44.14"/>
<polygon fill="black" stroke="black" points="1709.3,-46.19 1712.55,-36.1 1703.72,-41.96 1709.3,-46.19"/>
</g>
<!-- [root] var.zone -->
<g id="node23" class="node">
<title>[root] var.zone</title>
<polygon fill="none" stroke="black" points="1650.5,-36 1580.5,-36 1580.5,0 1656.5,0 1656.5,-30 1650.5,-36"/>
<polyline fill="none" stroke="black" points="1650.5,-36 1650.5,-30 "/>
<polyline fill="none" stroke="black" points="1656.5,-30 1650.5,-30 "/>
<text text-anchor="middle" x="1618.5" y="-14.3" font-family="Times,serif" font-size="14.00">var.zone</text>
</g>
<!-- [root] google_container_cluster.jsa_showcase_gke (expand)&#45;&gt;[root] var.zone -->
<g id="edge7" class="edge">
<title>[root] google_container_cluster.jsa_showcase_gke (expand)&#45;&gt;[root] var.zone</title>
<path fill="none" stroke="black" d="M1659.15,-71.7C1652.74,-63.39 1644.94,-53.28 1637.89,-44.14"/>
<polygon fill="black" stroke="black" points="1640.57,-41.88 1631.69,-36.1 1635.03,-46.16 1640.57,-41.88"/>
</g>
<!-- [root] google_container_node_pool.jsa_primary_nodes (expand) -->
<g id="node5" class="node">
<title>[root] google_container_node_pool.jsa_primary_nodes (expand)</title>
<polygon fill="none" stroke="black" points="786,-180 433,-180 433,-144 786,-144 786,-180"/>
<text text-anchor="middle" x="609.5" y="-158.3" font-family="Times,serif" font-size="14.00">google_container_node_pool.jsa_primary_nodes</text>
</g>
<!-- [root] google_container_node_pool.jsa_primary_nodes (expand)&#45;&gt;[root] google_container_cluster.jsa_showcase_gke (expand) -->
<g id="edge8" class="edge">
<title>[root] google_container_node_pool.jsa_primary_nodes (expand)&#45;&gt;[root] google_container_cluster.jsa_showcase_gke (expand)</title>
<path fill="none" stroke="black" d="M786.17,-147.33C802.17,-146.17 818.13,-145.04 833.5,-144 1100.92,-125.86 1168.04,-125.59 1435.5,-108 1456.29,-106.63 1478.1,-105.14 1499.72,-103.63"/>
<polygon fill="black" stroke="black" points="1500.24,-107.11 1509.97,-102.91 1499.75,-100.12 1500.24,-107.11"/>
</g>
<!-- [root] google_service_account.node_pool_sa (expand) -->
<g id="node6" class="node">
<title>[root] google_service_account.node_pool_sa (expand)</title>
<polygon fill="none" stroke="black" points="767.5,-108 485.5,-108 485.5,-72 767.5,-72 767.5,-108"/>
<text text-anchor="middle" x="626.5" y="-86.3" font-family="Times,serif" font-size="14.00">google_service_account.node_pool_sa</text>
</g>
<!-- [root] google_container_node_pool.jsa_primary_nodes (expand)&#45;&gt;[root] google_service_account.node_pool_sa (expand) -->
<g id="edge9" class="edge">
<title>[root] google_container_node_pool.jsa_primary_nodes (expand)&#45;&gt;[root] google_service_account.node_pool_sa (expand)</title>
<path fill="none" stroke="black" d="M613.7,-143.7C615.6,-135.9 617.88,-126.51 619.98,-117.83"/>
<polygon fill="black" stroke="black" points="623.39,-118.65 622.35,-108.1 616.58,-117 623.39,-118.65"/>
</g>
<!-- [root] var.num_nodes -->
<g id="node21" class="node">
<title>[root] var.num_nodes</title>
<polygon fill="none" stroke="black" points="903,-108 786,-108 786,-72 909,-72 909,-102 903,-108"/>
<polyline fill="none" stroke="black" points="903,-108 903,-102 "/>
<polyline fill="none" stroke="black" points="909,-102 903,-102 "/>
<text text-anchor="middle" x="847.5" y="-86.3" font-family="Times,serif" font-size="14.00">var.num_nodes</text>
</g>
<!-- [root] google_container_node_pool.jsa_primary_nodes (expand)&#45;&gt;[root] var.num_nodes -->
<g id="edge10" class="edge">
<title>[root] google_container_node_pool.jsa_primary_nodes (expand)&#45;&gt;[root] var.num_nodes</title>
<path fill="none" stroke="black" d="M667.42,-143.97C701.25,-134.01 744.12,-121.41 779.54,-110.99"/>
<polygon fill="black" stroke="black" points="780.72,-114.29 789.32,-108.11 778.74,-107.57 780.72,-114.29"/>
</g>
<!-- [root] google_service_account.node_pool_sa (expand)&#45;&gt;[root] provider[&quot;registry.terraform.io/hashicorp/google&quot;] -->
<g id="edge11" class="edge">
<title>[root] google_service_account.node_pool_sa (expand)&#45;&gt;[root] provider[&quot;registry.terraform.io/hashicorp/google&quot;]</title>
<path fill="none" stroke="black" d="M737.47,-71.97C814.76,-60.1 916.69,-44.45 989.68,-33.25"/>
<polygon fill="black" stroke="black" points="990.43,-36.68 999.78,-31.7 989.36,-29.76 990.43,-36.68"/>
</g>
<!-- [root] google_storage_bucket_iam_member.viewer (expand) -->
<g id="node7" class="node">
<title>[root] google_storage_bucket_iam_member.viewer (expand)</title>
<polygon fill="none" stroke="black" points="415,-180 86,-180 86,-144 415,-144 415,-180"/>
<text text-anchor="middle" x="250.5" y="-158.3" font-family="Times,serif" font-size="14.00">google_storage_bucket_iam_member.viewer</text>
</g>
<!-- [root] google_storage_bucket_iam_member.viewer (expand)&#45;&gt;[root] data.google_storage_bucket.container_registry_storage_bucket (expand) -->
<g id="edge12" class="edge">
<title>[root] google_storage_bucket_iam_member.viewer (expand)&#45;&gt;[root] data.google_storage_bucket.container_registry_storage_bucket (expand)</title>
<path fill="none" stroke="black" d="M246.3,-143.7C244.4,-135.9 242.12,-126.51 240.02,-117.83"/>
<polygon fill="black" stroke="black" points="243.42,-117 237.65,-108.1 236.61,-118.65 243.42,-117"/>
</g>
<!-- [root] google_storage_bucket_iam_member.viewer (expand)&#45;&gt;[root] google_service_account.node_pool_sa (expand) -->
<g id="edge13" class="edge">
<title>[root] google_storage_bucket_iam_member.viewer (expand)&#45;&gt;[root] google_service_account.node_pool_sa (expand)</title>
<path fill="none" stroke="black" d="M342,-143.97C397.26,-133.68 467.79,-120.55 524.8,-109.93"/>
<polygon fill="black" stroke="black" points="525.73,-113.32 534.92,-108.05 524.45,-106.44 525.73,-113.32"/>
</g>
<!-- [root] helm_release.nginxIngressController (expand) -->
<g id="node8" class="node">
<title>[root] helm_release.nginxIngressController (expand)</title>
<polygon fill="none" stroke="black" points="1301,-324 1020,-324 1020,-288 1301,-288 1301,-324"/>
<text text-anchor="middle" x="1160.5" y="-302.3" font-family="Times,serif" font-size="14.00">helm_release.nginxIngressController</text>
</g>
<!-- [root] helm_release.nginxIngressController (expand)&#45;&gt;[root] google_compute_address.kubernetes_cluster_primary_ingress_ip (expand) -->
<g id="edge14" class="edge">
<title>[root] helm_release.nginxIngressController (expand)&#45;&gt;[root] google_compute_address.kubernetes_cluster_primary_ingress_ip (expand)</title>
<path fill="none" stroke="black" d="M1151.09,-287.87C1137.62,-263.35 1112.73,-218.03 1096.92,-189.26"/>
<polygon fill="black" stroke="black" points="1099.82,-187.27 1091.94,-180.19 1093.69,-190.64 1099.82,-187.27"/>
</g>
<!-- [root] kubernetes_namespace.nginxNamespace (expand) -->
<g id="node12" class="node">
<title>[root] kubernetes_namespace.nginxNamespace (expand)</title>
<polygon fill="none" stroke="black" points="1491.5,-252 1181.5,-252 1181.5,-216 1491.5,-216 1491.5,-252"/>
<text text-anchor="middle" x="1336.5" y="-230.3" font-family="Times,serif" font-size="14.00">kubernetes_namespace.nginxNamespace</text>
</g>
<!-- [root] helm_release.nginxIngressController (expand)&#45;&gt;[root] kubernetes_namespace.nginxNamespace (expand) -->
<g id="edge15" class="edge">
<title>[root] helm_release.nginxIngressController (expand)&#45;&gt;[root] kubernetes_namespace.nginxNamespace (expand)</title>
<path fill="none" stroke="black" d="M1203.55,-287.88C1227.83,-278.22 1258.34,-266.09 1284.01,-255.88"/>
<polygon fill="black" stroke="black" points="1285.59,-259.02 1293.59,-252.07 1283,-252.51 1285.59,-259.02"/>
</g>
<!-- [root] provider[&quot;registry.terraform.io/hashicorp/helm&quot;] -->
<g id="node18" class="node">
<title>[root] provider[&quot;registry.terraform.io/hashicorp/helm&quot;]</title>
<polygon fill="none" stroke="black" points="1672.5,-180 1339.53,-162 1672.5,-144 2005.47,-162 1672.5,-180"/>
<text text-anchor="middle" x="1672.5" y="-158.3" font-family="Times,serif" font-size="14.00">provider[&quot;registry.terraform.io/hashicorp/helm&quot;]</text>
</g>
<!-- [root] helm_release.nginxIngressController (expand)&#45;&gt;[root] provider[&quot;registry.terraform.io/hashicorp/helm&quot;] -->
<g id="edge16" class="edge">
<title>[root] helm_release.nginxIngressController (expand)&#45;&gt;[root] provider[&quot;registry.terraform.io/hashicorp/helm&quot;]</title>
<path fill="none" stroke="black" d="M1157.22,-287.87C1154.44,-267.66 1153.49,-234.47 1172.5,-216 1195.57,-193.58 1357.85,-179.41 1491.38,-171.42"/>
<polygon fill="black" stroke="black" points="1491.98,-174.89 1501.75,-170.8 1491.57,-167.9 1491.98,-174.89"/>
</g>
<!-- [root] kubernetes_deployment.jsa_testapp (expand) -->
<g id="node9" class="node">
<title>[root] kubernetes_deployment.jsa_testapp (expand)</title>
<polygon fill="none" stroke="black" points="1783,-252 1510,-252 1510,-216 1783,-216 1783,-252"/>
<text text-anchor="middle" x="1646.5" y="-230.3" font-family="Times,serif" font-size="14.00">kubernetes_deployment.jsa_testapp</text>
</g>
<!-- [root] provider[&quot;registry.terraform.io/hashicorp/kubernetes&quot;] -->
<g id="node19" class="node">
<title>[root] provider[&quot;registry.terraform.io/hashicorp/kubernetes&quot;]</title>
<polygon fill="none" stroke="black" points="2397.5,-180 2023.31,-162 2397.5,-144 2771.69,-162 2397.5,-180"/>
<text text-anchor="middle" x="2397.5" y="-158.3" font-family="Times,serif" font-size="14.00">provider[&quot;registry.terraform.io/hashicorp/kubernetes&quot;]</text>
</g>
<!-- [root] kubernetes_deployment.jsa_testapp (expand)&#45;&gt;[root] provider[&quot;registry.terraform.io/hashicorp/kubernetes&quot;] -->
<g id="edge17" class="edge">
<title>[root] kubernetes_deployment.jsa_testapp (expand)&#45;&gt;[root] provider[&quot;registry.terraform.io/hashicorp/kubernetes&quot;]</title>
<path fill="none" stroke="black" d="M1783.27,-216.96C1786.37,-216.63 1789.45,-216.31 1792.5,-216 1950.13,-199.92 2131.17,-184.46 2253.82,-174.43"/>
<polygon fill="black" stroke="black" points="2254.34,-177.89 2264.03,-173.59 2253.77,-170.92 2254.34,-177.89"/>
</g>
<!-- [root] kubernetes_namespace.integrationdomainNamespace (expand) -->
<g id="node10" class="node">
<title>[root] kubernetes_namespace.integrationdomainNamespace (expand)</title>
<polygon fill="none" stroke="black" points="2203.5,-252 1801.5,-252 1801.5,-216 2203.5,-216 2203.5,-252"/>
<text text-anchor="middle" x="2002.5" y="-230.3" font-family="Times,serif" font-size="14.00">kubernetes_namespace.integrationdomainNamespace</text>
</g>
<!-- [root] kubernetes_namespace.integrationdomainNamespace (expand)&#45;&gt;[root] provider[&quot;registry.terraform.io/hashicorp/kubernetes&quot;] -->
<g id="edge18" class="edge">
<title>[root] kubernetes_namespace.integrationdomainNamespace (expand)&#45;&gt;[root] provider[&quot;registry.terraform.io/hashicorp/kubernetes&quot;]</title>
<path fill="none" stroke="black" d="M2098.62,-215.97C2163.76,-204.42 2249.08,-189.3 2311.88,-178.17"/>
<polygon fill="black" stroke="black" points="2312.53,-181.61 2321.76,-176.42 2311.31,-174.72 2312.53,-181.61"/>
</g>
<!-- [root] kubernetes_namespace.manufacturedomainNamespace (expand) -->
<g id="node11" class="node">
<title>[root] kubernetes_namespace.manufacturedomainNamespace (expand)</title>
<polygon fill="none" stroke="black" points="2635,-252 2222,-252 2222,-216 2635,-216 2635,-252"/>
<text text-anchor="middle" x="2428.5" y="-230.3" font-family="Times,serif" font-size="14.00">kubernetes_namespace.manufacturedomainNamespace</text>
</g>
<!-- [root] kubernetes_namespace.manufacturedomainNamespace (expand)&#45;&gt;[root] provider[&quot;registry.terraform.io/hashicorp/kubernetes&quot;] -->
<g id="edge19" class="edge">
<title>[root] kubernetes_namespace.manufacturedomainNamespace (expand)&#45;&gt;[root] provider[&quot;registry.terraform.io/hashicorp/kubernetes&quot;]</title>
<path fill="none" stroke="black" d="M2420.84,-215.7C2417.31,-207.73 2413.04,-198.1 2409.13,-189.26"/>
<polygon fill="black" stroke="black" points="2412.32,-187.83 2405.07,-180.1 2405.92,-190.67 2412.32,-187.83"/>
</g>
<!-- [root] kubernetes_namespace.nginxNamespace (expand)&#45;&gt;[root] provider[&quot;registry.terraform.io/hashicorp/kubernetes&quot;] -->
<g id="edge20" class="edge">
<title>[root] kubernetes_namespace.nginxNamespace (expand)&#45;&gt;[root] provider[&quot;registry.terraform.io/hashicorp/kubernetes&quot;]</title>
<path fill="none" stroke="black" d="M1491.87,-216.72C1494.77,-216.47 1497.65,-216.23 1500.5,-216 1743.9,-196.2 2025.03,-180.8 2206.74,-171.82"/>
<polygon fill="black" stroke="black" points="2207.12,-175.3 2216.94,-171.32 2206.78,-168.31 2207.12,-175.3"/>
</g>
<!-- [root] kubernetes_namespace.orderdomainNamespace (expand) -->
<g id="node13" class="node">
<title>[root] kubernetes_namespace.orderdomainNamespace (expand)</title>
<polygon fill="none" stroke="black" points="2372.5,-324 2010.5,-324 2010.5,-288 2372.5,-288 2372.5,-324"/>
<text text-anchor="middle" x="2191.5" y="-302.3" font-family="Times,serif" font-size="14.00">kubernetes_namespace.orderdomainNamespace</text>
</g>
<!-- [root] kubernetes_namespace.orderdomainNamespace (expand)&#45;&gt;[root] provider[&quot;registry.terraform.io/hashicorp/kubernetes&quot;] -->
<g id="edge21" class="edge">
<title>[root] kubernetes_namespace.orderdomainNamespace (expand)&#45;&gt;[root] provider[&quot;registry.terraform.io/hashicorp/kubernetes&quot;]</title>
<path fill="none" stroke="black" d="M2358.92,-287.98C2485.92,-274.67 2639.58,-257.53 2644.5,-252 2683.35,-208.34 2621.32,-186.09 2549.72,-174.75"/>
<polygon fill="black" stroke="black" points="2549.97,-171.25 2539.56,-173.22 2548.93,-178.17 2549.97,-171.25"/>
</g>
<!-- [root] kubernetes_namespace.supplierdomainNamespace (expand) -->
<g id="node14" class="node">
<title>[root] kubernetes_namespace.supplierdomainNamespace (expand)</title>
<polygon fill="none" stroke="black" points="2772,-324 2391,-324 2391,-288 2772,-288 2772,-324"/>
<text text-anchor="middle" x="2581.5" y="-302.3" font-family="Times,serif" font-size="14.00">kubernetes_namespace.supplierdomainNamespace</text>
</g>
<!-- [root] kubernetes_namespace.supplierdomainNamespace (expand)&#45;&gt;[root] provider[&quot;registry.terraform.io/hashicorp/kubernetes&quot;] -->
<g id="edge22" class="edge">
<title>[root] kubernetes_namespace.supplierdomainNamespace (expand)&#45;&gt;[root] provider[&quot;registry.terraform.io/hashicorp/kubernetes&quot;]</title>
<path fill="none" stroke="black" d="M2634.72,-287.96C2651.39,-279.84 2667.92,-268.23 2677.5,-252 2685.63,-238.22 2687.71,-228.32 2677.5,-216 2660.08,-194.97 2605.63,-182.23 2549.33,-174.53"/>
<polygon fill="black" stroke="black" points="2549.54,-171.03 2539.17,-173.2 2548.63,-177.97 2549.54,-171.03"/>
</g>
<!-- [root] kubernetes_service.jsa_testapp_lb (expand) -->
<g id="node15" class="node">
<title>[root] kubernetes_service.jsa_testapp_lb (expand)</title>
<polygon fill="none" stroke="black" points="1861.5,-324 1601.5,-324 1601.5,-288 1861.5,-288 1861.5,-324"/>
<text text-anchor="middle" x="1731.5" y="-302.3" font-family="Times,serif" font-size="14.00">kubernetes_service.jsa_testapp_lb</text>
</g>
<!-- [root] kubernetes_service.jsa_testapp_lb (expand)&#45;&gt;[root] kubernetes_deployment.jsa_testapp (expand) -->
<g id="edge23" class="edge">
<title>[root] kubernetes_service.jsa_testapp_lb (expand)&#45;&gt;[root] kubernetes_deployment.jsa_testapp (expand)</title>
<path fill="none" stroke="black" d="M1710.49,-287.7C1699.78,-278.88 1686.61,-268.03 1675,-258.47"/>
<polygon fill="black" stroke="black" points="1677.21,-255.76 1667.27,-252.1 1672.76,-261.16 1677.21,-255.76"/>
</g>
<!-- [root] output.cluster_endpoint -->
<g id="node16" class="node">
<title>[root] output.cluster_endpoint</title>
<polygon fill="none" stroke="black" points="2678.5,-396 2496.5,-396 2496.5,-360 2684.5,-360 2684.5,-390 2678.5,-396"/>
<polyline fill="none" stroke="black" points="2678.5,-396 2678.5,-390 "/>
<polyline fill="none" stroke="black" points="2684.5,-390 2678.5,-390 "/>
<text text-anchor="middle" x="2590.5" y="-374.3" font-family="Times,serif" font-size="14.00">output.cluster_endpoint</text>
</g>
<!-- [root] output.cluster_endpoint&#45;&gt;[root] google_container_cluster.jsa_showcase_gke (expand) -->
<g id="edge24" class="edge">
<title>[root] output.cluster_endpoint&#45;&gt;[root] google_container_cluster.jsa_showcase_gke (expand)</title>
<path fill="none" stroke="black" d="M2684.62,-361.88C2726.43,-353.06 2769.03,-340.4 2781.5,-324 2807.12,-290.31 2881.53,-249.24 2780.5,-144 2748.7,-110.87 2149,-97.69 1845.45,-93.12"/>
<polygon fill="black" stroke="black" points="1845.28,-89.61 1835.23,-92.96 1845.17,-96.61 1845.28,-89.61"/>
</g>
<!-- [root] provider[&quot;registry.terraform.io/hashicorp/helm&quot;]&#45;&gt;[root] data.google_client_config.default (expand) -->
<g id="edge30" class="edge">
<title>[root] provider[&quot;registry.terraform.io/hashicorp/helm&quot;]&#45;&gt;[root] data.google_client_config.default (expand)</title>
<path fill="none" stroke="black" d="M1602.28,-147.75C1545.65,-137.07 1465.27,-121.9 1401.85,-109.93"/>
<polygon fill="black" stroke="black" points="1402.3,-106.46 1391.82,-108.04 1401,-113.34 1402.3,-106.46"/>
</g>
<!-- [root] provider[&quot;registry.terraform.io/hashicorp/helm&quot;]&#45;&gt;[root] google_container_cluster.jsa_showcase_gke (expand) -->
<g id="edge31" class="edge">
<title>[root] provider[&quot;registry.terraform.io/hashicorp/helm&quot;]&#45;&gt;[root] google_container_cluster.jsa_showcase_gke (expand)</title>
<path fill="none" stroke="black" d="M1672.5,-143.7C1672.5,-135.98 1672.5,-126.71 1672.5,-118.11"/>
<polygon fill="black" stroke="black" points="1676,-118.1 1672.5,-108.1 1669,-118.1 1676,-118.1"/>
</g>
<!-- [root] provider[&quot;registry.terraform.io/hashicorp/kubernetes&quot;]&#45;&gt;[root] data.google_client_config.default (expand) -->
<g id="edge38" class="edge">
<title>[root] provider[&quot;registry.terraform.io/hashicorp/kubernetes&quot;]&#45;&gt;[root] data.google_client_config.default (expand)</title>
<path fill="none" stroke="black" d="M2226.29,-152.22C2045.72,-142.65 1752.95,-126.24 1500.5,-108 1480.05,-106.52 1458.43,-104.82 1437.27,-103.08"/>
<polygon fill="black" stroke="black" points="1437.51,-99.58 1427.26,-102.25 1436.93,-106.56 1437.51,-99.58"/>
</g>
<!-- [root] provider[&quot;registry.terraform.io/hashicorp/kubernetes&quot;]&#45;&gt;[root] google_container_cluster.jsa_showcase_gke (expand) -->
<g id="edge39" class="edge">
<title>[root] provider[&quot;registry.terraform.io/hashicorp/kubernetes&quot;]&#45;&gt;[root] google_container_cluster.jsa_showcase_gke (expand)</title>
<path fill="none" stroke="black" d="M2279.81,-149.64C2161.95,-138.26 1979.3,-120.62 1845.06,-107.66"/>
<polygon fill="black" stroke="black" points="1845.37,-104.17 1835.08,-106.7 1844.7,-111.14 1845.37,-104.17"/>
</g>
<!-- [root] provider[&quot;registry.terraform.io/hashicorp/google&quot;] (close) -->
<g id="node24" class="node">
<title>[root] provider[&quot;registry.terraform.io/hashicorp/google&quot;] (close)</title>
<ellipse fill="none" stroke="black" cx="782.5" cy="-234" rx="304.65" ry="18"/>
<text text-anchor="middle" x="782.5" y="-230.3" font-family="Times,serif" font-size="14.00">[root] provider[&quot;registry.terraform.io/hashicorp/google&quot;] (close)</text>
</g>
<!-- [root] provider[&quot;registry.terraform.io/hashicorp/google&quot;] (close)&#45;&gt;[root] data.google_client_config.default (expand) -->
<g id="edge25" class="edge">
<title>[root] provider[&quot;registry.terraform.io/hashicorp/google&quot;] (close)&#45;&gt;[root] data.google_client_config.default (expand)</title>
<path fill="none" stroke="black" d="M787.1,-215.98C793.68,-195.22 807.91,-160.83 833.5,-144 886.53,-109.14 1047.32,-97.07 1165.68,-92.96"/>
<polygon fill="black" stroke="black" points="1166.04,-96.45 1175.92,-92.63 1165.81,-89.46 1166.04,-96.45"/>
</g>
<!-- [root] provider[&quot;registry.terraform.io/hashicorp/google&quot;] (close)&#45;&gt;[root] google_compute_address.kubernetes_cluster_primary_ingress_ip (expand) -->
<g id="edge26" class="edge">
<title>[root] provider[&quot;registry.terraform.io/hashicorp/google&quot;] (close)&#45;&gt;[root] google_compute_address.kubernetes_cluster_primary_ingress_ip (expand)</title>
<path fill="none" stroke="black" d="M853.6,-216.41C897.42,-206.18 953.81,-193.03 999.66,-182.33"/>
<polygon fill="black" stroke="black" points="1000.63,-185.7 1009.57,-180.02 999.03,-178.88 1000.63,-185.7"/>
</g>
<!-- [root] provider[&quot;registry.terraform.io/hashicorp/google&quot;] (close)&#45;&gt;[root] google_container_node_pool.jsa_primary_nodes (expand) -->
<g id="edge27" class="edge">
<title>[root] provider[&quot;registry.terraform.io/hashicorp/google&quot;] (close)&#45;&gt;[root] google_container_node_pool.jsa_primary_nodes (expand)</title>
<path fill="none" stroke="black" d="M740.62,-216.05C716.68,-206.37 686.46,-194.14 661.07,-183.86"/>
<polygon fill="black" stroke="black" points="662.18,-180.54 651.59,-180.03 659.55,-187.03 662.18,-180.54"/>
</g>
<!-- [root] provider[&quot;registry.terraform.io/hashicorp/google&quot;] (close)&#45;&gt;[root] google_storage_bucket_iam_member.viewer (expand) -->
<g id="edge28" class="edge">
<title>[root] provider[&quot;registry.terraform.io/hashicorp/google&quot;] (close)&#45;&gt;[root] google_storage_bucket_iam_member.viewer (expand)</title>
<path fill="none" stroke="black" d="M663.77,-217.38C582.76,-206.72 475.15,-192.56 390.04,-181.36"/>
<polygon fill="black" stroke="black" points="390.41,-177.88 380.04,-180.04 389.5,-184.82 390.41,-177.88"/>
</g>
<!-- [root] provider[&quot;registry.terraform.io/hashicorp/helm&quot;] (close) -->
<g id="node25" class="node">
<title>[root] provider[&quot;registry.terraform.io/hashicorp/helm&quot;] (close)</title>
<ellipse fill="none" stroke="black" cx="1247.5" cy="-378" rx="297.05" ry="18"/>
<text text-anchor="middle" x="1247.5" y="-374.3" font-family="Times,serif" font-size="14.00">[root] provider[&quot;registry.terraform.io/hashicorp/helm&quot;] (close)</text>
</g>
<!-- [root] provider[&quot;registry.terraform.io/hashicorp/helm&quot;] (close)&#45;&gt;[root] helm_release.nginxIngressController (expand) -->
<g id="edge29" class="edge">
<title>[root] provider[&quot;registry.terraform.io/hashicorp/helm&quot;] (close)&#45;&gt;[root] helm_release.nginxIngressController (expand)</title>
<path fill="none" stroke="black" d="M1225.99,-359.7C1215.04,-350.88 1201.55,-340.03 1189.68,-330.47"/>
<polygon fill="black" stroke="black" points="1191.74,-327.65 1181.76,-324.1 1187.36,-333.1 1191.74,-327.65"/>
</g>
<!-- [root] provider[&quot;registry.terraform.io/hashicorp/kubernetes&quot;] (close) -->
<g id="node26" class="node">
<title>[root] provider[&quot;registry.terraform.io/hashicorp/kubernetes&quot;] (close)</title>
<ellipse fill="none" stroke="black" cx="1944.5" cy="-378" rx="326.04" ry="18"/>
<text text-anchor="middle" x="1944.5" y="-374.3" font-family="Times,serif" font-size="14.00">[root] provider[&quot;registry.terraform.io/hashicorp/kubernetes&quot;] (close)</text>
</g>
<!-- [root] provider[&quot;registry.terraform.io/hashicorp/kubernetes&quot;] (close)&#45;&gt;[root] kubernetes_namespace.integrationdomainNamespace (expand) -->
<g id="edge32" class="edge">
<title>[root] provider[&quot;registry.terraform.io/hashicorp/kubernetes&quot;] (close)&#45;&gt;[root] kubernetes_namespace.integrationdomainNamespace (expand)</title>
<path fill="none" stroke="black" d="M1947.52,-359.74C1951.1,-341.41 1957.94,-311.85 1968.5,-288 1972.64,-278.65 1978.29,-269.06 1983.8,-260.65"/>
<polygon fill="black" stroke="black" points="1986.7,-262.62 1989.42,-252.38 1980.9,-258.69 1986.7,-262.62"/>
</g>
<!-- [root] provider[&quot;registry.terraform.io/hashicorp/kubernetes&quot;] (close)&#45;&gt;[root] kubernetes_namespace.manufacturedomainNamespace (expand) -->
<g id="edge33" class="edge">
<title>[root] provider[&quot;registry.terraform.io/hashicorp/kubernetes&quot;] (close)&#45;&gt;[root] kubernetes_namespace.manufacturedomainNamespace (expand)</title>
<path fill="none" stroke="black" d="M1953.3,-359.67C1965.52,-336.33 1987.68,-296.71 2001.5,-288 2021.01,-275.7 2121.09,-262.93 2219.45,-253.01"/>
<polygon fill="black" stroke="black" points="2219.97,-256.48 2229.57,-252 2219.27,-249.51 2219.97,-256.48"/>
</g>
<!-- [root] provider[&quot;registry.terraform.io/hashicorp/kubernetes&quot;] (close)&#45;&gt;[root] kubernetes_namespace.nginxNamespace (expand) -->
<g id="edge34" class="edge">
<title>[root] provider[&quot;registry.terraform.io/hashicorp/kubernetes&quot;] (close)&#45;&gt;[root] kubernetes_namespace.nginxNamespace (expand)</title>
<path fill="none" stroke="black" d="M1802.87,-361.75C1738.18,-353.24 1660.9,-340.88 1592.5,-324 1519.76,-306.04 1438.46,-275.99 1387.4,-255.84"/>
<polygon fill="black" stroke="black" points="1388.5,-252.51 1377.91,-252.07 1385.91,-259.01 1388.5,-252.51"/>
</g>
<!-- [root] provider[&quot;registry.terraform.io/hashicorp/kubernetes&quot;] (close)&#45;&gt;[root] kubernetes_namespace.orderdomainNamespace (expand) -->
<g id="edge35" class="edge">
<title>[root] provider[&quot;registry.terraform.io/hashicorp/kubernetes&quot;] (close)&#45;&gt;[root] kubernetes_namespace.orderdomainNamespace (expand)</title>
<path fill="none" stroke="black" d="M2003.66,-360.23C2039.04,-350.21 2084.18,-337.41 2121.34,-326.88"/>
<polygon fill="black" stroke="black" points="2122.44,-330.21 2131.1,-324.12 2120.53,-323.48 2122.44,-330.21"/>
</g>
<!-- [root] provider[&quot;registry.terraform.io/hashicorp/kubernetes&quot;] (close)&#45;&gt;[root] kubernetes_namespace.supplierdomainNamespace (expand) -->
<g id="edge36" class="edge">
<title>[root] provider[&quot;registry.terraform.io/hashicorp/kubernetes&quot;] (close)&#45;&gt;[root] kubernetes_namespace.supplierdomainNamespace (expand)</title>
<path fill="none" stroke="black" d="M2083.9,-361.68C2181.88,-350.91 2313.36,-336.47 2416.56,-325.12"/>
<polygon fill="black" stroke="black" points="2417.22,-328.57 2426.78,-324 2416.46,-321.62 2417.22,-328.57"/>
</g>
<!-- [root] provider[&quot;registry.terraform.io/hashicorp/kubernetes&quot;] (close)&#45;&gt;[root] kubernetes_service.jsa_testapp_lb (expand) -->
<g id="edge37" class="edge">
<title>[root] provider[&quot;registry.terraform.io/hashicorp/kubernetes&quot;] (close)&#45;&gt;[root] kubernetes_service.jsa_testapp_lb (expand)</title>
<path fill="none" stroke="black" d="M1893.21,-360.14C1863.09,-350.25 1824.82,-337.67 1793.08,-327.24"/>
<polygon fill="black" stroke="black" points="1794.05,-323.87 1783.45,-324.07 1791.86,-330.52 1794.05,-323.87"/>
</g>
<!-- [root] root -->
<g id="node27" class="node">
<title>[root] root</title>
<ellipse fill="none" stroke="black" cx="1658.5" cy="-450" rx="58.49" ry="18"/>
<text text-anchor="middle" x="1658.5" y="-446.3" font-family="Times,serif" font-size="14.00">[root] root</text>
</g>
<!-- [root] root&#45;&gt;[root] output.cluster_endpoint -->
<g id="edge40" class="edge">
<title>[root] root&#45;&gt;[root] output.cluster_endpoint</title>
<path fill="none" stroke="black" d="M1714.7,-444.78C1866.92,-433.35 2288.94,-401.65 2486.27,-386.83"/>
<polygon fill="black" stroke="black" points="2486.65,-390.31 2496.36,-386.07 2486.13,-383.33 2486.65,-390.31"/>
</g>
<!-- [root] root&#45;&gt;[root] provider[&quot;registry.terraform.io/hashicorp/google&quot;] (close) -->
<g id="edge41" class="edge">
<title>[root] root&#45;&gt;[root] provider[&quot;registry.terraform.io/hashicorp/google&quot;] (close)</title>
<path fill="none" stroke="black" d="M1600.57,-447.05C1440.61,-441.35 1000.67,-423.33 941.5,-396 876.79,-366.11 823.93,-297.7 798.63,-260.4"/>
<polygon fill="black" stroke="black" points="801.54,-258.45 793.09,-252.07 795.71,-262.33 801.54,-258.45"/>
</g>
<!-- [root] root&#45;&gt;[root] provider[&quot;registry.terraform.io/hashicorp/helm&quot;] (close) -->
<g id="edge42" class="edge">
<title>[root] root&#45;&gt;[root] provider[&quot;registry.terraform.io/hashicorp/helm&quot;] (close)</title>
<path fill="none" stroke="black" d="M1608.51,-440.49C1545.09,-429.69 1434.09,-410.78 1351.86,-396.77"/>
<polygon fill="black" stroke="black" points="1352.43,-393.32 1341.98,-395.09 1351.25,-400.22 1352.43,-393.32"/>
</g>
<!-- [root] root&#45;&gt;[root] provider[&quot;registry.terraform.io/hashicorp/kubernetes&quot;] (close) -->
<g id="edge43" class="edge">
<title>[root] root&#45;&gt;[root] provider[&quot;registry.terraform.io/hashicorp/kubernetes&quot;] (close)</title>
<path fill="none" stroke="black" d="M1702.87,-438.14C1746.5,-427.46 1814.02,-410.94 1866.6,-398.07"/>
<polygon fill="black" stroke="black" points="1867.69,-401.4 1876.57,-395.63 1866.02,-394.6 1867.69,-401.4"/>
</g>
</g>
</svg>
