<?xml version="1.0" encoding="UTF-8" standalone="no"?>
<!DOCTYPE svg PUBLIC "-//W3C//DTD SVG 1.1//EN"
 "http://www.w3.org/Graphics/SVG/1.1/DTD/svg11.dtd">
<!-- Generated by graphviz version 2.43.0 (0)
 -->
<!-- Title: %3 Pages: 1 -->
<svg width="2127pt" height="404pt"
 viewBox="0.00 0.00 2126.70 404.00" xmlns="http://www.w3.org/2000/svg" xmlns:xlink="http://www.w3.org/1999/xlink">
<g id="graph0" class="graph" transform="scale(1 1) rotate(0) translate(4 400)">
<title>%3</title>
<polygon fill="white" stroke="transparent" points="-4,4 -4,-400 2122.7,-400 2122.7,4 -4,4"/>
<!-- [root] google_secret_manager_secret.pg&#45;database&#45;password&#45;secret (expand) -->
<g id="node1" class="node">
<title>[root] google_secret_manager_secret.pg&#45;database&#45;password&#45;secret (expand)</title>
<polygon fill="none" stroke="black" points="1284.7,-108 835.7,-108 835.7,-72 1284.7,-72 1284.7,-108"/>
<text text-anchor="middle" x="1060.2" y="-86.3" font-family="Times,serif" font-size="14.00">google_secret_manager_secret.pg&#45;database&#45;password&#45;secret</text>
</g>
<!-- [root] provider[&quot;registry.terraform.io/hashicorp/google&quot;] -->
<g id="node13" class="node">
<title>[root] provider[&quot;registry.terraform.io/hashicorp/google&quot;]</title>
<polygon fill="none" stroke="black" points="1062.2,-36 718.67,-18 1062.2,0 1405.73,-18 1062.2,-36"/>
<text text-anchor="middle" x="1062.2" y="-14.3" font-family="Times,serif" font-size="14.00">provider[&quot;registry.terraform.io/hashicorp/google&quot;]</text>
</g>
<!-- [root] google_secret_manager_secret.pg&#45;database&#45;password&#45;secret (expand)&#45;&gt;[root] provider[&quot;registry.terraform.io/hashicorp/google&quot;] -->
<g id="edge1" class="edge">
<title>[root] google_secret_manager_secret.pg&#45;database&#45;password&#45;secret (expand)&#45;&gt;[root] provider[&quot;registry.terraform.io/hashicorp/google&quot;]</title>
<path fill="none" stroke="black" d="M1060.69,-71.7C1060.91,-63.98 1061.18,-54.71 1061.42,-46.11"/>
<polygon fill="black" stroke="black" points="1064.92,-46.2 1061.71,-36.1 1057.93,-46 1064.92,-46.2"/>
</g>
<!-- [root] google_secret_manager_secret_version.pg&#45;database&#45;password (expand) -->
<g id="node2" class="node">
<title>[root] google_secret_manager_secret_version.pg&#45;database&#45;password (expand)</title>
<polygon fill="none" stroke="black" points="1288.7,-180 829.7,-180 829.7,-144 1288.7,-144 1288.7,-180"/>
<text text-anchor="middle" x="1059.2" y="-158.3" font-family="Times,serif" font-size="14.00">google_secret_manager_secret_version.pg&#45;database&#45;password</text>
</g>
<!-- [root] google_secret_manager_secret_version.pg&#45;database&#45;password (expand)&#45;&gt;[root] google_secret_manager_secret.pg&#45;database&#45;password&#45;secret (expand) -->
<g id="edge2" class="edge">
<title>[root] google_secret_manager_secret_version.pg&#45;database&#45;password (expand)&#45;&gt;[root] google_secret_manager_secret.pg&#45;database&#45;password&#45;secret (expand)</title>
<path fill="none" stroke="black" d="M1059.45,-143.7C1059.56,-135.98 1059.69,-126.71 1059.81,-118.11"/>
<polygon fill="black" stroke="black" points="1063.31,-118.15 1059.95,-108.1 1056.31,-118.05 1063.31,-118.15"/>
</g>
<!-- [root] random_string.dbPasswordGen (expand) -->
<g id="node15" class="node">
<title>[root] random_string.dbPasswordGen (expand)</title>
<polygon fill="none" stroke="black" points="719.2,-108 479.2,-108 479.2,-72 719.2,-72 719.2,-108"/>
<text text-anchor="middle" x="599.2" y="-86.3" font-family="Times,serif" font-size="14.00">random_string.dbPasswordGen</text>
</g>
<!-- [root] google_secret_manager_secret_version.pg&#45;database&#45;password (expand)&#45;&gt;[root] random_string.dbPasswordGen (expand) -->
<g id="edge3" class="edge">
<title>[root] google_secret_manager_secret_version.pg&#45;database&#45;password (expand)&#45;&gt;[root] random_string.dbPasswordGen (expand)</title>
<path fill="none" stroke="black" d="M947.26,-143.97C878.95,-133.57 791.57,-120.27 721.46,-109.6"/>
<polygon fill="black" stroke="black" points="721.65,-106.09 711.24,-108.05 720.6,-113.01 721.65,-106.09"/>
</g>
<!-- [root] google_sql_database.manufacturerdomain_db (expand) -->
<g id="node3" class="node">
<title>[root] google_sql_database.manufacturerdomain_db (expand)</title>
<polygon fill="none" stroke="black" points="2081.2,-252 1739.2,-252 1739.2,-216 2081.2,-216 2081.2,-252"/>
<text text-anchor="middle" x="1910.2" y="-230.3" font-family="Times,serif" font-size="14.00">google_sql_database.manufacturerdomain_db</text>
</g>
<!-- [root] google_sql_database_instance.pgdatabaseserver1 (expand) -->
<g id="node6" class="node">
<title>[root] google_sql_database_instance.pgdatabaseserver1 (expand)</title>
<polygon fill="none" stroke="black" points="1773.7,-108 1402.7,-108 1402.7,-72 1773.7,-72 1773.7,-108"/>
<text text-anchor="middle" x="1588.2" y="-86.3" font-family="Times,serif" font-size="14.00">google_sql_database_instance.pgdatabaseserver1</text>
</g>
<!-- [root] google_sql_database.manufacturerdomain_db (expand)&#45;&gt;[root] google_sql_database_instance.pgdatabaseserver1 (expand) -->
<g id="edge4" class="edge">
<title>[root] google_sql_database.manufacturerdomain_db (expand)&#45;&gt;[root] google_sql_database_instance.pgdatabaseserver1 (expand)</title>
<path fill="none" stroke="black" d="M1871.36,-215.87C1812.41,-189.88 1700.46,-140.51 1636.4,-112.26"/>
<polygon fill="black" stroke="black" points="1637.49,-108.91 1626.93,-108.08 1634.66,-115.32 1637.49,-108.91"/>
</g>
<!-- [root] google_sql_database.orderdomain_db (expand) -->
<g id="node4" class="node">
<title>[root] google_sql_database.orderdomain_db (expand)</title>
<polygon fill="none" stroke="black" points="1399.2,-252 1115.2,-252 1115.2,-216 1399.2,-216 1399.2,-252"/>
<text text-anchor="middle" x="1257.2" y="-230.3" font-family="Times,serif" font-size="14.00">google_sql_database.orderdomain_db</text>
</g>
<!-- [root] google_sql_database.orderdomain_db (expand)&#45;&gt;[root] google_sql_database_instance.pgdatabaseserver1 (expand) -->
<g id="edge5" class="edge">
<title>[root] google_sql_database.orderdomain_db (expand)&#45;&gt;[root] google_sql_database_instance.pgdatabaseserver1 (expand)</title>
<path fill="none" stroke="black" d="M1397.5,-215.95C1452.47,-207.18 1507.72,-195.13 1530.2,-180 1552.68,-164.87 1568.46,-137.78 1577.83,-117.45"/>
<polygon fill="black" stroke="black" points="1581.12,-118.66 1581.92,-108.09 1574.71,-115.86 1581.12,-118.66"/>
</g>
<!-- [root] google_sql_database.supplierdomain_db (expand) -->
<g id="node5" class="node">
<title>[root] google_sql_database.supplierdomain_db (expand)</title>
<polygon fill="none" stroke="black" points="1720.7,-252 1417.7,-252 1417.7,-216 1720.7,-216 1720.7,-252"/>
<text text-anchor="middle" x="1569.2" y="-230.3" font-family="Times,serif" font-size="14.00">google_sql_database.supplierdomain_db</text>
</g>
<!-- [root] google_sql_database.supplierdomain_db (expand)&#45;&gt;[root] google_sql_database_instance.pgdatabaseserver1 (expand) -->
<g id="edge6" class="edge">
<title>[root] google_sql_database.supplierdomain_db (expand)&#45;&gt;[root] google_sql_database_instance.pgdatabaseserver1 (expand)</title>
<path fill="none" stroke="black" d="M1571.49,-215.87C1574.73,-191.67 1580.68,-147.21 1584.53,-118.39"/>
<polygon fill="black" stroke="black" points="1588.04,-118.57 1585.9,-108.19 1581.1,-117.64 1588.04,-118.57"/>
</g>
<!-- [root] google_sql_database_instance.pgdatabaseserver1 (expand)&#45;&gt;[root] provider[&quot;registry.terraform.io/hashicorp/google&quot;] -->
<g id="edge8" class="edge">
<title>[root] google_sql_database_instance.pgdatabaseserver1 (expand)&#45;&gt;[root] provider[&quot;registry.terraform.io/hashicorp/google&quot;]</title>
<path fill="none" stroke="black" d="M1460.2,-71.97C1369.17,-59.85 1248.55,-43.8 1164.04,-32.55"/>
<polygon fill="black" stroke="black" points="1164.29,-29.06 1153.92,-31.21 1163.37,-35.99 1164.29,-29.06"/>
</g>
<!-- [root] var.environment -->
<g id="node17" class="node">
<title>[root] var.environment</title>
<polygon fill="none" stroke="black" points="1892.2,-36 1764.2,-36 1764.2,0 1898.2,0 1898.2,-30 1892.2,-36"/>
<polyline fill="none" stroke="black" points="1892.2,-36 1892.2,-30 "/>
<polyline fill="none" stroke="black" points="1898.2,-30 1892.2,-30 "/>
<text text-anchor="middle" x="1831.2" y="-14.3" font-family="Times,serif" font-size="14.00">var.environment</text>
</g>
<!-- [root] google_sql_database_instance.pgdatabaseserver1 (expand)&#45;&gt;[root] var.environment -->
<g id="edge9" class="edge">
<title>[root] google_sql_database_instance.pgdatabaseserver1 (expand)&#45;&gt;[root] var.environment</title>
<path fill="none" stroke="black" d="M1647.33,-71.97C1681.88,-62.01 1725.65,-49.41 1761.81,-38.99"/>
<polygon fill="black" stroke="black" points="1763.16,-42.24 1771.8,-36.11 1761.22,-35.52 1763.16,-42.24"/>
</g>
<!-- [root] var.region -->
<g id="node18" class="node">
<title>[root] var.region</title>
<polygon fill="none" stroke="black" points="1999.7,-36 1916.7,-36 1916.7,0 2005.7,0 2005.7,-30 1999.7,-36"/>
<polyline fill="none" stroke="black" points="1999.7,-36 1999.7,-30 "/>
<polyline fill="none" stroke="black" points="2005.7,-30 1999.7,-30 "/>
<text text-anchor="middle" x="1961.2" y="-14.3" font-family="Times,serif" font-size="14.00">var.region</text>
</g>
<!-- [root] google_sql_database_instance.pgdatabaseserver1 (expand)&#45;&gt;[root] var.region -->
<g id="edge10" class="edge">
<title>[root] google_sql_database_instance.pgdatabaseserver1 (expand)&#45;&gt;[root] var.region</title>
<path fill="none" stroke="black" d="M1715.92,-71.97C1771.83,-63.5 1838.26,-52.06 1906.47,-35.99"/>
<polygon fill="black" stroke="black" points="1907.63,-39.31 1916.54,-33.59 1906.01,-32.5 1907.63,-39.31"/>
</g>
<!-- [root] local.allowed_ips (expand) -->
<g id="node19" class="node">
<title>[root] local.allowed_ips (expand)</title>
<ellipse fill="none" stroke="black" cx="1585.2" cy="-18" rx="161.37" ry="18"/>
<text text-anchor="middle" x="1585.2" y="-14.3" font-family="Times,serif" font-size="14.00">[root] local.allowed_ips (expand)</text>
</g>
<!-- [root] google_sql_database_instance.pgdatabaseserver1 (expand)&#45;&gt;[root] local.allowed_ips (expand) -->
<g id="edge7" class="edge">
<title>[root] google_sql_database_instance.pgdatabaseserver1 (expand)&#45;&gt;[root] local.allowed_ips (expand)</title>
<path fill="none" stroke="black" d="M1587.46,-71.7C1587.13,-63.98 1586.73,-54.71 1586.36,-46.11"/>
<polygon fill="black" stroke="black" points="1589.86,-45.95 1585.93,-36.1 1582.86,-46.25 1589.86,-45.95"/>
</g>
<!-- [root] google_sql_ssl_cert.admin_client_cert (expand) -->
<g id="node7" class="node">
<title>[root] google_sql_ssl_cert.admin_client_cert (expand)</title>
<polygon fill="none" stroke="black" points="1059.2,-252 775.2,-252 775.2,-216 1059.2,-216 1059.2,-252"/>
<text text-anchor="middle" x="917.2" y="-230.3" font-family="Times,serif" font-size="14.00">google_sql_ssl_cert.admin_client_cert</text>
</g>
<!-- [root] google_sql_user.admin_user (expand) -->
<g id="node8" class="node">
<title>[root] google_sql_user.admin_user (expand)</title>
<polygon fill="none" stroke="black" points="1521.7,-180 1306.7,-180 1306.7,-144 1521.7,-144 1521.7,-180"/>
<text text-anchor="middle" x="1414.2" y="-158.3" font-family="Times,serif" font-size="14.00">google_sql_user.admin_user</text>
</g>
<!-- [root] google_sql_ssl_cert.admin_client_cert (expand)&#45;&gt;[root] google_sql_user.admin_user (expand) -->
<g id="edge11" class="edge">
<title>[root] google_sql_ssl_cert.admin_client_cert (expand)&#45;&gt;[root] google_sql_user.admin_user (expand)</title>
<path fill="none" stroke="black" d="M1040.44,-215.99C1112.2,-206.05 1204.7,-193.15 1296.44,-180.1"/>
<polygon fill="black" stroke="black" points="1297.05,-183.55 1306.46,-178.68 1296.07,-176.62 1297.05,-183.55"/>
</g>
<!-- [root] google_sql_user.admin_user (expand)&#45;&gt;[root] google_sql_database_instance.pgdatabaseserver1 (expand) -->
<g id="edge12" class="edge">
<title>[root] google_sql_user.admin_user (expand)&#45;&gt;[root] google_sql_database_instance.pgdatabaseserver1 (expand)</title>
<path fill="none" stroke="black" d="M1456.76,-143.88C1480.76,-134.22 1510.93,-122.09 1536.3,-111.88"/>
<polygon fill="black" stroke="black" points="1537.8,-115.05 1545.77,-108.07 1535.19,-108.55 1537.8,-115.05"/>
</g>
<!-- [root] google_sql_user.admin_user (expand)&#45;&gt;[root] random_string.dbPasswordGen (expand) -->
<g id="edge13" class="edge">
<title>[root] google_sql_user.admin_user (expand)&#45;&gt;[root] random_string.dbPasswordGen (expand)</title>
<path fill="none" stroke="black" d="M1306.49,-145.07C1303.36,-144.69 1300.26,-144.34 1297.2,-144 1283.29,-142.46 927.66,-115.67 729.53,-100.78"/>
<polygon fill="black" stroke="black" points="729.57,-97.28 719.34,-100.02 729.05,-104.26 729.57,-97.28"/>
</g>
<!-- [root] output.admin_cert -->
<g id="node9" class="node">
<title>[root] output.admin_cert</title>
<polygon fill="none" stroke="black" points="672.2,-324 530.2,-324 530.2,-288 678.2,-288 678.2,-318 672.2,-324"/>
<polyline fill="none" stroke="black" points="672.2,-324 672.2,-318 "/>
<polyline fill="none" stroke="black" points="678.2,-318 672.2,-318 "/>
<text text-anchor="middle" x="604.2" y="-302.3" font-family="Times,serif" font-size="14.00">output.admin_cert</text>
</g>
<!-- [root] output.admin_cert&#45;&gt;[root] google_sql_ssl_cert.admin_client_cert (expand) -->
<g id="edge14" class="edge">
<title>[root] output.admin_cert&#45;&gt;[root] google_sql_ssl_cert.admin_client_cert (expand)</title>
<path fill="none" stroke="black" d="M678.38,-288.41C724.2,-278.16 783.18,-264.97 831.07,-254.26"/>
<polygon fill="black" stroke="black" points="832.11,-257.62 841.11,-252.02 830.58,-250.78 832.11,-257.62"/>
</g>
<!-- [root] output.admin_private_key -->
<g id="node10" class="node">
<title>[root] output.admin_private_key</title>
<polygon fill="none" stroke="black" points="892.2,-324 696.2,-324 696.2,-288 898.2,-288 898.2,-318 892.2,-324"/>
<polyline fill="none" stroke="black" points="892.2,-324 892.2,-318 "/>
<polyline fill="none" stroke="black" points="898.2,-318 892.2,-318 "/>
<text text-anchor="middle" x="797.2" y="-302.3" font-family="Times,serif" font-size="14.00">output.admin_private_key</text>
</g>
<!-- [root] output.admin_private_key&#45;&gt;[root] google_sql_ssl_cert.admin_client_cert (expand) -->
<g id="edge15" class="edge">
<title>[root] output.admin_private_key&#45;&gt;[root] google_sql_ssl_cert.admin_client_cert (expand)</title>
<path fill="none" stroke="black" d="M826.55,-287.88C842.24,-278.72 861.76,-267.34 878.65,-257.48"/>
<polygon fill="black" stroke="black" points="880.86,-260.25 887.73,-252.19 877.33,-254.21 880.86,-260.25"/>
</g>
<!-- [root] output.ca&#45;cert -->
<g id="node11" class="node">
<title>[root] output.ca&#45;cert</title>
<polygon fill="none" stroke="black" points="1027.7,-324 916.7,-324 916.7,-288 1033.7,-288 1033.7,-318 1027.7,-324"/>
<polyline fill="none" stroke="black" points="1027.7,-324 1027.7,-318 "/>
<polyline fill="none" stroke="black" points="1033.7,-318 1027.7,-318 "/>
<text text-anchor="middle" x="975.2" y="-302.3" font-family="Times,serif" font-size="14.00">output.ca&#45;cert</text>
</g>
<!-- [root] output.ca&#45;cert&#45;&gt;[root] google_sql_ssl_cert.admin_client_cert (expand) -->
<g id="edge16" class="edge">
<title>[root] output.ca&#45;cert&#45;&gt;[root] google_sql_ssl_cert.admin_client_cert (expand)</title>
<path fill="none" stroke="black" d="M960.86,-287.7C953.91,-279.3 945.43,-269.07 937.8,-259.86"/>
<polygon fill="black" stroke="black" points="940.45,-257.57 931.37,-252.1 935.06,-262.04 940.45,-257.57"/>
</g>
<!-- [root] output.postgres_server_ipv4 -->
<g id="node12" class="node">
<title>[root] output.postgres_server_ipv4</title>
<polygon fill="none" stroke="black" points="2112.7,-180 1897.7,-180 1897.7,-144 2118.7,-144 2118.7,-174 2112.7,-180"/>
<polyline fill="none" stroke="black" points="2112.7,-180 2112.7,-174 "/>
<polyline fill="none" stroke="black" points="2118.7,-174 2112.7,-174 "/>
<text text-anchor="middle" x="2008.2" y="-158.3" font-family="Times,serif" font-size="14.00">output.postgres_server_ipv4</text>
</g>
<!-- [root] output.postgres_server_ipv4&#45;&gt;[root] google_sql_database_instance.pgdatabaseserver1 (expand) -->
<g id="edge17" class="edge">
<title>[root] output.postgres_server_ipv4&#45;&gt;[root] google_sql_database_instance.pgdatabaseserver1 (expand)</title>
<path fill="none" stroke="black" d="M1905.99,-143.97C1843.88,-133.61 1764.5,-120.38 1700.61,-109.74"/>
<polygon fill="black" stroke="black" points="1700.94,-106.24 1690.5,-108.05 1699.79,-113.15 1700.94,-106.24"/>
</g>
<!-- [root] provider[&quot;registry.terraform.io/hashicorp/random&quot;] -->
<g id="node14" class="node">
<title>[root] provider[&quot;registry.terraform.io/hashicorp/random&quot;]</title>
<polygon fill="none" stroke="black" points="350.2,-36 -0.2,-18 350.2,0 700.6,-18 350.2,-36"/>
<text text-anchor="middle" x="350.2" y="-14.3" font-family="Times,serif" font-size="14.00">provider[&quot;registry.terraform.io/hashicorp/random&quot;]</text>
</g>
<!-- [root] random_string.dbPasswordGen (expand)&#45;&gt;[root] provider[&quot;registry.terraform.io/hashicorp/random&quot;] -->
<g id="edge24" class="edge">
<title>[root] random_string.dbPasswordGen (expand)&#45;&gt;[root] provider[&quot;registry.terraform.io/hashicorp/random&quot;]</title>
<path fill="none" stroke="black" d="M538.61,-71.97C500.02,-61.12 450.2,-47.11 411.48,-36.23"/>
<polygon fill="black" stroke="black" points="411.95,-32.73 401.38,-33.39 410.06,-39.46 411.95,-32.73"/>
</g>
<!-- [root] var.database_admin_pwd -->
<g id="node16" class="node">
<title>[root] var.database_admin_pwd</title>
<polygon fill="none" stroke="black" points="1240.7,-324 1051.7,-324 1051.7,-288 1246.7,-288 1246.7,-318 1240.7,-324"/>
<polyline fill="none" stroke="black" points="1240.7,-324 1240.7,-318 "/>
<polyline fill="none" stroke="black" points="1246.7,-318 1240.7,-318 "/>
<text text-anchor="middle" x="1149.2" y="-302.3" font-family="Times,serif" font-size="14.00">var.database_admin_pwd</text>
</g>
<!-- [root] provider[&quot;registry.terraform.io/hashicorp/google&quot;] (close) -->
<g id="node20" class="node">
<title>[root] provider[&quot;registry.terraform.io/hashicorp/google&quot;] (close)</title>
<ellipse fill="none" stroke="black" cx="1569.2" cy="-306" rx="304.65" ry="18"/>
<text text-anchor="middle" x="1569.2" y="-302.3" font-family="Times,serif" font-size="14.00">[root] provider[&quot;registry.terraform.io/hashicorp/google&quot;] (close)</text>
</g>
<!-- [root] provider[&quot;registry.terraform.io/hashicorp/google&quot;] (close)&#45;&gt;[root] google_secret_manager_secret_version.pg&#45;database&#45;password (expand) -->
<g id="edge18" class="edge">
<title>[root] provider[&quot;registry.terraform.io/hashicorp/google&quot;] (close)&#45;&gt;[root] google_secret_manager_secret_version.pg&#45;database&#45;password (expand)</title>
<path fill="none" stroke="black" d="M1381.38,-291.79C1263.43,-282.07 1129.37,-267.83 1106.2,-252 1085.09,-237.58 1072.76,-210.58 1066.07,-190.08"/>
<polygon fill="black" stroke="black" points="1069.37,-188.91 1063.14,-180.34 1062.67,-190.93 1069.37,-188.91"/>
</g>
<!-- [root] provider[&quot;registry.terraform.io/hashicorp/google&quot;] (close)&#45;&gt;[root] google_sql_database.manufacturerdomain_db (expand) -->
<g id="edge19" class="edge">
<title>[root] provider[&quot;registry.terraform.io/hashicorp/google&quot;] (close)&#45;&gt;[root] google_sql_database.manufacturerdomain_db (expand)</title>
<path fill="none" stroke="black" d="M1649.15,-288.59C1699.45,-278.26 1764.57,-264.9 1817.18,-254.09"/>
<polygon fill="black" stroke="black" points="1818.1,-257.48 1827.19,-252.04 1816.69,-250.62 1818.1,-257.48"/>
</g>
<!-- [root] provider[&quot;registry.terraform.io/hashicorp/google&quot;] (close)&#45;&gt;[root] google_sql_database.orderdomain_db (expand) -->
<g id="edge20" class="edge">
<title>[root] provider[&quot;registry.terraform.io/hashicorp/google&quot;] (close)&#45;&gt;[root] google_sql_database.orderdomain_db (expand)</title>
<path fill="none" stroke="black" d="M1495.65,-288.5C1449.99,-278.25 1391.1,-265.04 1343.26,-254.31"/>
<polygon fill="black" stroke="black" points="1343.76,-250.83 1333.23,-252.06 1342.23,-257.66 1343.76,-250.83"/>
</g>
<!-- [root] provider[&quot;registry.terraform.io/hashicorp/google&quot;] (close)&#45;&gt;[root] google_sql_database.supplierdomain_db (expand) -->
<g id="edge21" class="edge">
<title>[root] provider[&quot;registry.terraform.io/hashicorp/google&quot;] (close)&#45;&gt;[root] google_sql_database.supplierdomain_db (expand)</title>
<path fill="none" stroke="black" d="M1569.2,-287.7C1569.2,-279.98 1569.2,-270.71 1569.2,-262.11"/>
<polygon fill="black" stroke="black" points="1572.7,-262.1 1569.2,-252.1 1565.7,-262.1 1572.7,-262.1"/>
</g>
<!-- [root] provider[&quot;registry.terraform.io/hashicorp/google&quot;] (close)&#45;&gt;[root] google_sql_ssl_cert.admin_client_cert (expand) -->
<g id="edge22" class="edge">
<title>[root] provider[&quot;registry.terraform.io/hashicorp/google&quot;] (close)&#45;&gt;[root] google_sql_ssl_cert.admin_client_cert (expand)</title>
<path fill="none" stroke="black" d="M1428.35,-290.03C1329.07,-279.46 1192.99,-264.93 1073.2,-252 1072.08,-251.88 1070.96,-251.76 1069.83,-251.64"/>
<polygon fill="black" stroke="black" points="1069.92,-248.13 1059.6,-250.53 1069.17,-255.09 1069.92,-248.13"/>
</g>
<!-- [root] provider[&quot;registry.terraform.io/hashicorp/random&quot;] (close) -->
<g id="node21" class="node">
<title>[root] provider[&quot;registry.terraform.io/hashicorp/random&quot;] (close)</title>
<ellipse fill="none" stroke="black" cx="502.2" cy="-162" rx="309.25" ry="18"/>
<text text-anchor="middle" x="502.2" y="-158.3" font-family="Times,serif" font-size="14.00">[root] provider[&quot;registry.terraform.io/hashicorp/random&quot;] (close)</text>
</g>
<!-- [root] provider[&quot;registry.terraform.io/hashicorp/random&quot;] (close)&#45;&gt;[root] random_string.dbPasswordGen (expand) -->
<g id="edge23" class="edge">
<title>[root] provider[&quot;registry.terraform.io/hashicorp/random&quot;] (close)&#45;&gt;[root] random_string.dbPasswordGen (expand)</title>
<path fill="none" stroke="black" d="M526.18,-143.7C538.51,-134.8 553.72,-123.82 567.05,-114.2"/>
<polygon fill="black" stroke="black" points="569.44,-116.79 575.5,-108.1 565.34,-111.12 569.44,-116.79"/>
</g>
<!-- [root] root -->
<g id="node22" class="node">
<title>[root] root</title>
<ellipse fill="none" stroke="black" cx="975.2" cy="-378" rx="58.49" ry="18"/>
<text text-anchor="middle" x="975.2" y="-374.3" font-family="Times,serif" font-size="14.00">[root] root</text>
</g>
<!-- [root] root&#45;&gt;[root] output.admin_cert -->
<g id="edge25" class="edge">
<title>[root] root&#45;&gt;[root] output.admin_cert</title>
<path fill="none" stroke="black" d="M925.97,-368.25C870.65,-358.35 777.92,-341.54 688.44,-324.22"/>
<polygon fill="black" stroke="black" points="688.88,-320.74 678.4,-322.27 687.55,-327.61 688.88,-320.74"/>
</g>
<!-- [root] root&#45;&gt;[root] output.admin_private_key -->
<g id="edge26" class="edge">
<title>[root] root&#45;&gt;[root] output.admin_private_key</title>
<path fill="none" stroke="black" d="M940.46,-363.34C914.82,-353.26 879.48,-339.36 850.31,-327.89"/>
<polygon fill="black" stroke="black" points="851.27,-324.5 840.68,-324.1 848.71,-331.02 851.27,-324.5"/>
</g>
<!-- [root] root&#45;&gt;[root] output.ca&#45;cert -->
<g id="edge27" class="edge">
<title>[root] root&#45;&gt;[root] output.ca&#45;cert</title>
<path fill="none" stroke="black" d="M975.2,-359.7C975.2,-351.98 975.2,-342.71 975.2,-334.11"/>
<polygon fill="black" stroke="black" points="978.7,-334.1 975.2,-324.1 971.7,-334.1 978.7,-334.1"/>
</g>
<!-- [root] root&#45;&gt;[root] output.postgres_server_ipv4 -->
<g id="edge28" class="edge">
<title>[root] root&#45;&gt;[root] output.postgres_server_ipv4</title>
<path fill="none" stroke="black" d="M1033.43,-375.7C1207.1,-371.49 1719.52,-356.59 1883.2,-324 1978.73,-304.98 2033.76,-331.39 2090.2,-252 2099.47,-238.96 2097.85,-230.05 2090.2,-216 2083.29,-203.3 2071.88,-193.18 2059.73,-185.33"/>
<polygon fill="black" stroke="black" points="2061.2,-182.13 2050.82,-180.01 2057.61,-188.14 2061.2,-182.13"/>
</g>
<!-- [root] root&#45;&gt;[root] var.database_admin_pwd -->
<g id="edge31" class="edge">
<title>[root] root&#45;&gt;[root] var.database_admin_pwd</title>
<path fill="none" stroke="black" d="M1009.16,-363.34C1034.22,-353.26 1068.77,-339.36 1097.28,-327.89"/>
<polygon fill="black" stroke="black" points="1098.72,-331.08 1106.69,-324.1 1096.11,-324.58 1098.72,-331.08"/>
</g>
<!-- [root] root&#45;&gt;[root] provider[&quot;registry.terraform.io/hashicorp/google&quot;] (close) -->
<g id="edge29" class="edge">
<title>[root] root&#45;&gt;[root] provider[&quot;registry.terraform.io/hashicorp/google&quot;] (close)</title>
<path fill="none" stroke="black" d="M1028.7,-370.7C1118.17,-360.15 1300.96,-338.61 1429.09,-323.51"/>
<polygon fill="black" stroke="black" points="1429.86,-326.95 1439.38,-322.3 1429.04,-319.99 1429.86,-326.95"/>
</g>
<!-- [root] root&#45;&gt;[root] provider[&quot;registry.terraform.io/hashicorp/random&quot;] (close) -->
<g id="edge30" class="edge">
<title>[root] root&#45;&gt;[root] provider[&quot;registry.terraform.io/hashicorp/random&quot;] (close)</title>
<path fill="none" stroke="black" d="M917.94,-374.23C802.15,-368.07 548.82,-351.58 521.2,-324 486.28,-289.12 490.28,-226.48 496.27,-190.48"/>
<polygon fill="black" stroke="black" points="499.79,-190.69 498.15,-180.22 492.91,-189.43 499.79,-190.69"/>
</g>
</g>
</svg>
